<svg width="40" height="40" viewBox="0 0 120 120" fill="none" xmlns="http://www.w3.org/2000/svg">
<path fill-rule="evenodd" clip-rule="evenodd" d="M64.7555 60.0942C64.7555 62.6929 62.6525 64.7995 60.0584 64.7995C57.4643 64.7995 55.3614 62.6929 55.3614 60.0942C55.3614 57.4956 57.4643 55.389 60.0584 55.389C62.6525 55.389 64.7555 57.4956 64.7555 60.0942ZM60.9978 60.0942C60.9978 60.6139 60.5772 61.0353 60.0584 61.0353C59.5396 61.0353 59.119 60.6139 59.119 60.0942C59.119 59.5745 59.5396 59.1532 60.0584 59.1532C60.5772 59.1532 60.9978 59.5745 60.9978 60.0942Z" fill="#FBFBFB"/>
<path fill-rule="evenodd" clip-rule="evenodd" d="M26.4013 21.1879C31.4572 8.61578 44.9459 0 60.1045 0H65.336L63.6692 8.68237C76.1187 3.37385 91.7383 6.83614 102.457 17.5736L106.156 21.2793L98.849 26.238C111.399 31.3028 120 44.815 120 60V65.2406L111.333 63.5709C116.632 76.0421 113.176 91.6889 102.457 102.426L98.7578 106.132L93.8077 98.8121C88.7518 111.384 75.2631 120 60.1045 120H54.873L56.5398 111.318C44.0903 116.626 28.4707 113.164 17.752 102.426L14.0528 98.7207L21.4364 93.7101C9.02917 88.5595 0.471666 74.9332 0.125178 60.1961L0 54.8719L8.91394 56.5174C3.56069 44.0318 7.00791 28.3364 17.752 17.5736L21.4512 13.8679L26.4013 21.1879ZM24.3195 33.5461L20.4167 27.7749C12.8994 38.3793 13.4614 51.7789 21.2379 59.569C25.5926 63.9314 32.3995 66.0641 39.4128 65.6242C42.8229 65.4102 46.1089 64.5989 49.0194 63.2615C44.1236 61.8045 39.5699 59.1564 35.786 55.8127C29.4475 50.2115 24.7731 42.2202 24.3195 33.5461ZM63.3603 71.1044C61.9059 76.0087 59.2624 80.5704 55.9244 84.361C50.3331 90.7105 42.3557 95.3931 33.6967 95.8475L27.9355 99.757C38.5215 107.288 51.8977 106.724 59.6742 98.9344C64.029 94.5721 66.1581 87.7533 65.7189 80.7278C65.5053 77.3118 64.6954 74.0201 63.3603 71.1044ZM71.1896 56.7385C76.0854 58.1955 80.6391 60.8436 84.423 64.1874C90.7615 69.7885 95.4359 77.7798 95.8895 86.4539L99.7923 92.2251C107.31 81.6207 106.748 68.2211 98.9711 60.431C94.6164 56.0686 87.8095 53.9359 80.7962 54.3758C77.3861 54.5898 74.1001 55.4011 71.1896 56.7385ZM56.8487 48.8956C58.3031 43.9913 60.9466 39.4296 64.2846 35.639C69.8759 29.2895 77.8533 24.6069 86.5123 24.1526L92.2735 20.243C81.6875 12.7125 68.3113 13.2755 60.5348 21.0656C56.18 25.4279 54.0509 32.2467 54.4901 39.2722C54.7037 42.6882 55.5136 45.9799 56.8487 48.8956ZM69.2646 59.906C69.2646 65.1033 65.0588 69.3165 59.8705 69.3165C54.6823 69.3165 50.4764 65.1033 50.4764 59.906C50.4764 54.7087 54.6823 50.4955 59.8705 50.4955C65.0588 50.4955 69.2646 54.7087 69.2646 59.906Z" fill="#1A56DB"/>
</svg>
